# xmcd
#
# Track frame offsets:
#	150
#	12806
#	33919
#	52274
#	69597
#	85810
#	104165
#	119136
#	136386
#	155546
#	171265
#	199073
#	215905
#	231202
#	245496
#	259667
#	279871
#	294198
#	313521
#	327712
#
# Disc length: 4599 seconds
#
# Revision: 0
# Processed by: cddbd v1.5.2PL0 Copyright (c) Steve Scherf et al.
# Submitted via: EZCDAudioConverter 7.1.1.1
#
DISCID=3411f514
DTITLE=Lee Towers - The Real... Lee Towers cd 2
DYEAR=2017
DGENRE=Pop
TTITLE0=Lee Towers - I Can See Clearly Now
TTITLE1=Lee Towers and Anita Meyer - Run To Me (Live)
TTITLE2=Lee Towers - New York, New York
TTITLE3=Lee Towers - Love Is All
TTITLE4=Lee Towers - If You Know What I Mean
TTITLE5=Lee Towers - My Way
TTITLE6=Lee Towers - I Believe In Music
TTITLE7=Lee Towers and Anita Meyer - We've Got Tonight
TTITLE8=Lee Towers - The Answer To Everything
TTITLE9=Lee Towers - Maybe This Time
TTITLE10=Lee Towers - Memory
TTITLE11=Lee Towers - Friend, Lover, Woman, Wife
TTITLE12=Lee Towers - Apron Strings
TTITLE13=Lee Towers - You Don't Bring Me Flowers
TTITLE14=Lee Towers - Ol' Man River
TTITLE15=Lee Towers - You And Me
TTITLE16=Lee Towers - Watch What Happens
TTITLE17=Lee Towers - Winter In America
TTITLE18=Lee Towers - Little Lovin' (Live)
TTITLE19=Lee Towers - When A Child Is Born
EXTD=
EXTT0=
EXTT1=
EXTT2=
EXTT3=
EXTT4=
EXTT5=
EXTT6=
EXTT7=
EXTT8=
EXTT9=
EXTT10=
EXTT11=
EXTT12=
EXTT13=
EXTT14=
EXTT15=
EXTT16=
EXTT17=
EXTT18=
EXTT19=
PLAYORDER=
